<?xml version="1.0" encoding="UTF-8"?>
<svg xmlns="http://www.w3.org/2000/svg" width="1024" height="1536" viewBox="0 0 1024 1536" role="img" aria-labelledby="posterTitle posterDescription">
  <title id="posterTitle">BuildMaster Tático — 4-2-2-1-1 Base Curta</title>
  <desc id="posterDescription">Infográfico tático criado localmente pelo BuildMaster, sem serviço de inteligência artificial externo.</desc>
  <defs>
    <linearGradient id="bg" x1="0" y1="0" x2="1" y2="1"><stop offset="0" stop-color="#02070d"/><stop offset=".55" stop-color="#07131f"/><stop offset="1" stop-color="#010308"/></linearGradient>
    <linearGradient id="panelGradient" x1="0" y1="0" x2="0" y2="1"><stop offset="0" stop-color="#111f2b"/><stop offset="1" stop-color="#07111b"/></linearGradient>
    <linearGradient id="field" x1="0" y1="0" x2="1" y2="1"><stop offset="0" stop-color="#274f21"/><stop offset=".5" stop-color="#173b1b"/><stop offset="1" stop-color="#0c2714"/></linearGradient>
    <filter id="glow"><feGaussianBlur stdDeviation="4" result="blur"/><feMerge><feMergeNode in="blur"/><feMergeNode in="SourceGraphic"/></feMerge></filter>
    <pattern id="grain" width="14" height="14" patternUnits="userSpaceOnUse"><circle cx="2" cy="3" r=".7" fill="#fff" opacity=".05"/><circle cx="10" cy="11" r=".5" fill="#fff" opacity=".04"/></pattern>
    <marker id="arrowGold" markerWidth="9" markerHeight="9" refX="7" refY="4.5" orient="auto"><path d="M0,0 L9,4.5 L0,9 z" fill="#f4c542"/></marker>
    <marker id="arrowCyan" markerWidth="9" markerHeight="9" refX="7" refY="4.5" orient="auto"><path d="M0,0 L9,4.5 L0,9 z" fill="#1fd3df"/></marker>
    <marker id="arrowBlue" markerWidth="9" markerHeight="9" refX="7" refY="4.5" orient="auto"><path d="M0,0 L9,4.5 L0,9 z" fill="#2e78e8"/></marker>
  </defs>
  <rect width="1024" height="1536" fill="url(#bg)"/>
  <rect width="1024" height="1536" fill="url(#grain)"/>
  <path d="M0 110 L125 0 M0 170 L185 0 M840 1536 L1024 1352 M900 1536 L1024 1412" stroke="#f4c542" stroke-width="3" opacity=".65"/>
  <path d="M20 310 L1004 310 M20 1125 L1004 1125" stroke="#f4c542" stroke-width="1" opacity=".45"/>

  <g filter="url(#glow)">
    <circle cx="92" cy="82" r="42" fill="#071522" stroke="#f4c542" stroke-width="3"/>
    <path d="M67 82 Q92 57 117 82 Q92 107 67 82 Z" fill="none" stroke="#f4c542" stroke-width="7"/>
    <text x="151" y="95" fill="#f4c542" font-size="64" font-weight="1000" letter-spacing="2" font-family="Inter,Arial,sans-serif">BUILDMASTER TÁTICO</text>
  </g>
  <text x="512" y="137" fill="#c3d0dc" font-size="21" font-weight="700" text-anchor="middle" font-family="Inter,Arial,sans-serif"><tspan x="512" dy="0">Plano de Jogo Premium</tspan></text>

  <g>
    <rect x="96" y="162" width="832" height="62" rx="16" fill="#07111b" stroke="#f4c542" stroke-width="2"/>
    <text x="127" y="201" fill="#f2f6fa" font-size="24" font-weight="800" font-family="Inter,Arial,sans-serif">ESTILO DO TÉCNICO:</text>
    <text x="415" y="201" fill="#f4c542" font-size="24" font-weight="900" font-family="Inter,Arial,sans-serif">POSSE DE BOLA</text>
    <rect x="96" y="236" width="832" height="62" rx="16" fill="#07111b" stroke="#f4c542" stroke-width="2"/>
    <text x="127" y="275" fill="#f2f6fa" font-size="24" font-weight="800" font-family="Inter,Arial,sans-serif">FORMAÇÃO:</text>
    <text x="300" y="275" fill="#f4c542" font-size="24" font-weight="900" font-family="Inter,Arial,sans-serif">4-2-2-1-1 BASE CURTA</text>
  </g>

  
    <g>
      <rect x="18" y="330" width="185" height="190" rx="18" fill="url(#panelGradient)" stroke="#f4c542" stroke-width="2"/>
      <rect x="27" y="339" width="167" height="44" rx="12" fill="#0b1724" stroke="#f4c542" stroke-opacity=".55"/>
      <text x="36" y="369" fill="#f4c542" font-size="14" font-weight="900" font-family="Inter,Arial,sans-serif">◎ 1. PASSE CERTO</text>
      <circle cx="40" cy="396" r="3" fill="#f4c542"/><text x="50" y="400" fill="#edf4ff" font-size="11" font-weight="500" text-anchor="start" font-family="Inter,Arial,sans-serif"><tspan x="50" dy="0">Prefira passes</tspan></text><circle cx="40" cy="414" r="3" fill="#f4c542"/><text x="50" y="418" fill="#edf4ff" font-size="11" font-weight="500" text-anchor="start" font-family="Inter,Arial,sans-serif"><tspan x="50" dy="0">curtos</tspan></text><circle cx="40" cy="432" r="3" fill="#f4c542"/><text x="50" y="436" fill="#edf4ff" font-size="11" font-weight="500" text-anchor="start" font-family="Inter,Arial,sans-serif"><tspan x="50" dy="0">Progrida pelos</tspan></text><circle cx="40" cy="450" r="3" fill="#f4c542"/><text x="50" y="454" fill="#edf4ff" font-size="11" font-weight="500" text-anchor="start" font-family="Inter,Arial,sans-serif"><tspan x="50" dy="0">meias</tspan></text><circle cx="40" cy="468" r="3" fill="#f4c542"/><text x="50" y="472" fill="#edf4ff" font-size="11" font-weight="500" text-anchor="start" font-family="Inter,Arial,sans-serif"><tspan x="50" dy="0">Mantenha triângulos</tspan></text><circle cx="40" cy="486" r="3" fill="#f4c542"/><text x="50" y="490" fill="#edf4ff" font-size="11" font-weight="500" text-anchor="start" font-family="Inter,Arial,sans-serif"><tspan x="50" dy="0">ativos.</tspan></text><circle cx="40" cy="504" r="3" fill="#f4c542"/><text x="50" y="508" fill="#edf4ff" font-size="11" font-weight="500" text-anchor="start" font-family="Inter,Arial,sans-serif"><tspan x="50" dy="0">Evite passes longos</tspan></text>
    </g>
  
    <g>
      <rect x="18" y="530" width="185" height="190" rx="18" fill="url(#panelGradient)" stroke="#1fd3df" stroke-width="2"/>
      <rect x="27" y="539" width="167" height="44" rx="12" fill="#0b1724" stroke="#1fd3df" stroke-opacity=".55"/>
      <text x="36" y="569" fill="#1fd3df" font-size="14" font-weight="900" font-family="Inter,Arial,sans-serif">↻ 2. VOLTAR A BOLA</text>
      <circle cx="40" cy="596" r="3" fill="#1fd3df"/><text x="50" y="600" fill="#edf4ff" font-size="11" font-weight="500" text-anchor="start" font-family="Inter,Arial,sans-serif"><tspan x="50" dy="0">Sob pressão, volte</tspan></text><circle cx="40" cy="614" r="3" fill="#1fd3df"/><text x="50" y="618" fill="#edf4ff" font-size="11" font-weight="500" text-anchor="start" font-family="Inter,Arial,sans-serif"><tspan x="50" dy="0">a</tspan></text><circle cx="40" cy="632" r="3" fill="#1fd3df"/><text x="50" y="636" fill="#edf4ff" font-size="11" font-weight="500" text-anchor="start" font-family="Inter,Arial,sans-serif"><tspan x="50" dy="0">Use o goleiro e os</tspan></text><circle cx="40" cy="650" r="3" fill="#1fd3df"/><text x="50" y="654" fill="#edf4ff" font-size="11" font-weight="500" text-anchor="start" font-family="Inter,Arial,sans-serif"><tspan x="50" dy="0">zagueiros.</tspan></text><circle cx="40" cy="668" r="3" fill="#1fd3df"/><text x="50" y="672" fill="#edf4ff" font-size="11" font-weight="500" text-anchor="start" font-family="Inter,Arial,sans-serif"><tspan x="50" dy="0">Reorganize antes de</tspan></text><circle cx="40" cy="686" r="3" fill="#1fd3df"/><text x="50" y="690" fill="#edf4ff" font-size="11" font-weight="500" text-anchor="start" font-family="Inter,Arial,sans-serif"><tspan x="50" dy="0">acelerar.</tspan></text>
    </g>
  
    <g>
      <rect x="18" y="730" width="185" height="190" rx="18" fill="url(#panelGradient)" stroke="#f4c542" stroke-width="2"/>
      <rect x="27" y="739" width="167" height="44" rx="12" fill="#0b1724" stroke="#f4c542" stroke-opacity=".55"/>
      <text x="36" y="769" fill="#f4c542" font-size="16" font-weight="900" font-family="Inter,Arial,sans-serif">↗ 3. ATACAR</text>
      <circle cx="40" cy="796" r="3" fill="#f4c542"/><text x="50" y="800" fill="#edf4ff" font-size="11" font-weight="500" text-anchor="start" font-family="Inter,Arial,sans-serif"><tspan x="50" dy="0">Ataque os espaços</tspan></text><circle cx="40" cy="814" r="3" fill="#f4c542"/><text x="50" y="818" fill="#edf4ff" font-size="11" font-weight="500" text-anchor="start" font-family="Inter,Arial,sans-serif"><tspan x="50" dy="0">entre</tspan></text><circle cx="40" cy="832" r="3" fill="#f4c542"/><text x="50" y="836" fill="#edf4ff" font-size="11" font-weight="500" text-anchor="start" font-family="Inter,Arial,sans-serif"><tspan x="50" dy="0">Dê apoio e infiltre</tspan></text><circle cx="40" cy="850" r="3" fill="#f4c542"/><text x="50" y="854" fill="#edf4ff" font-size="11" font-weight="500" text-anchor="start" font-family="Inter,Arial,sans-serif"><tspan x="50" dy="0">na</tspan></text><circle cx="40" cy="868" r="3" fill="#f4c542"/><text x="50" y="872" fill="#edf4ff" font-size="11" font-weight="500" text-anchor="start" font-family="Inter,Arial,sans-serif"><tspan x="50" dy="0">Finalize somente</tspan></text><circle cx="40" cy="886" r="3" fill="#f4c542"/><text x="50" y="890" fill="#edf4ff" font-size="11" font-weight="500" text-anchor="start" font-family="Inter,Arial,sans-serif"><tspan x="50" dy="0">com</tspan></text>
    </g>
  
    <g>
      <rect x="18" y="930" width="185" height="190" rx="18" fill="url(#panelGradient)" stroke="#3e8cff" stroke-width="2"/>
      <rect x="27" y="939" width="167" height="44" rx="12" fill="#0b1724" stroke="#3e8cff" stroke-opacity=".55"/>
      <text x="36" y="969" fill="#3e8cff" font-size="16" font-weight="900" font-family="Inter,Arial,sans-serif">⬡ 4. DEFENDER</text>
      <circle cx="40" cy="996" r="3" fill="#3e8cff"/><text x="50" y="1000" fill="#edf4ff" font-size="11" font-weight="500" text-anchor="start" font-family="Inter,Arial,sans-serif"><tspan x="50" dy="0">Mantenha a linha</tspan></text><circle cx="40" cy="1014" r="3" fill="#3e8cff"/><text x="50" y="1018" fill="#edf4ff" font-size="11" font-weight="500" text-anchor="start" font-family="Inter,Arial,sans-serif"><tspan x="50" dy="0">compacta.</tspan></text><circle cx="40" cy="1032" r="3" fill="#3e8cff"/><text x="50" y="1036" fill="#edf4ff" font-size="11" font-weight="500" text-anchor="start" font-family="Inter,Arial,sans-serif"><tspan x="50" dy="0">Feche o centro</tspan></text><circle cx="40" cy="1050" r="3" fill="#3e8cff"/><text x="50" y="1054" fill="#edf4ff" font-size="11" font-weight="500" text-anchor="start" font-family="Inter,Arial,sans-serif"><tspan x="50" dy="0">primeiro.</tspan></text><circle cx="40" cy="1068" r="3" fill="#3e8cff"/><text x="50" y="1072" fill="#edf4ff" font-size="11" font-weight="500" text-anchor="start" font-family="Inter,Arial,sans-serif"><tspan x="50" dy="0">Pressione sem</tspan></text><circle cx="40" cy="1086" r="3" fill="#3e8cff"/><text x="50" y="1090" fill="#edf4ff" font-size="11" font-weight="500" text-anchor="start" font-family="Inter,Arial,sans-serif"><tspan x="50" dy="0">abandonar</tspan></text>
    </g>

  <g>
    <rect x="215" y="360" width="595" height="690" rx="20" fill="url(#field)" stroke="#9bb788" stroke-width="3"/>
    <rect x="231" y="376" width="563" height="658" fill="none" stroke="#d6e1c9" stroke-opacity=".58" stroke-width="2"/>
    <line x1="231" y1="705" x2="794" y2="705" stroke="#d6e1c9" stroke-opacity=".58" stroke-width="2"/>
    <circle cx="512.5" cy="705" r="65" fill="none" stroke="#d6e1c9" stroke-opacity=".58" stroke-width="2"/>
    <circle cx="512.5" cy="705" r="4" fill="#d6e1c9" opacity=".7"/>
    <rect x="370" y="376" width="285" height="102" fill="none" stroke="#d6e1c9" stroke-opacity=".58" stroke-width="2"/>
    <rect x="370" y="932" width="285" height="102" fill="none" stroke="#d6e1c9" stroke-opacity=".58" stroke-width="2"/>
    <rect x="447" y="376" width="130" height="45" fill="none" stroke="#d6e1c9" stroke-opacity=".58" stroke-width="2"/>
    <rect x="447" y="989" width="130" height="45" fill="none" stroke="#d6e1c9" stroke-opacity=".58" stroke-width="2"/>
    <path d="M 534.5 636 Q 500.5 549.6 490.5 470.4" fill="none" stroke="#f4c542" stroke-width="4" stroke-linecap="round"  marker-end="url(#arrowGold)" opacity=".9"/><path d="M 356 622.2 Q 375.55 687.6 419.1 760.2" fill="none" stroke="#f4c542" stroke-width="4" stroke-linecap="round"  marker-end="url(#arrowGold)" opacity=".9"/><path d="M 463.1 760.2 Q 530.45 756.6 573.8 760.2" fill="none" stroke="#f4c542" stroke-width="4" stroke-linecap="round"  marker-end="url(#arrowGold)" opacity=".9"/><path d="M 617.8 760.2 Q 631.4 687.6 669 622.2" fill="none" stroke="#f4c542" stroke-width="4" stroke-linecap="round"  marker-end="url(#arrowGold)" opacity=".9"/><path d="M 320.3 877.5 Q 354.725 884.25 413.15 898.2" fill="none" stroke="#2e78e8" stroke-width="3.4" stroke-linecap="round"  marker-end="url(#arrowBlue)" opacity=".9"/><path d="M 457.15 898.2 Q 524.5 894.6 567.85 898.2" fill="none" stroke="#2e78e8" stroke-width="3.4" stroke-linecap="round"  marker-end="url(#arrowBlue)" opacity=".9"/><path d="M 611.85 898.2 Q 646.2750000000001 884.25 704.7 877.5" fill="none" stroke="#2e78e8" stroke-width="3.4" stroke-linecap="round"  marker-end="url(#arrowBlue)" opacity=".9"/><path d="M 334 587.2 Q 397.25 623.8000000000001 512.5 676" fill="none" stroke="#f4c542" stroke-width="4" stroke-linecap="round"  marker-end="url(#arrowGold)" opacity=".9"/><path d="M 441.1 725.2 Q 502.8 692.8000000000001 512.5 676" fill="none" stroke="#f4c542" stroke-width="4" stroke-linecap="round"  marker-end="url(#arrowGold)" opacity=".9"/><path d="M 595.8 725.2 Q 528.15 610 512.5 510.4" fill="none" stroke="#f4c542" stroke-width="4" stroke-linecap="round"  marker-end="url(#arrowGold)" opacity=".9"/><path d="M 691 587.2 Q 627.75 541 512.5 510.4" fill="none" stroke="#f4c542" stroke-width="4" stroke-linecap="round"  marker-end="url(#arrowGold)" opacity=".9"/><path d="M 298.3 843.5 Q 298.15 748.45 334 664.2" fill="none" stroke="#2e78e8" stroke-width="3.4" stroke-linecap="round"  marker-end="url(#arrowBlue)" opacity=".9"/><path d="M 435.15 864.2 Q 456.125 827.8000000000001 441.1 802.2" fill="none" stroke="#2e78e8" stroke-width="3.4" stroke-linecap="round"  marker-end="url(#arrowBlue)" opacity=".9"/><path d="M 589.85 864.2 Q 574.825 827.8000000000001 595.8 802.2" fill="none" stroke="#2e78e8" stroke-width="3.4" stroke-linecap="round"  marker-end="url(#arrowBlue)" opacity=".9"/><path d="M 726.7 843.5 Q 726.85 748.45 691 664.2" fill="none" stroke="#2e78e8" stroke-width="3.4" stroke-linecap="round"  marker-end="url(#arrowBlue)" opacity=".9"/><path d="M 497.5 949.9 Q 361.9 920.9000000000001 298.3 913.5" fill="none" stroke="#1fd3df" stroke-width="3.4" stroke-linecap="round" stroke-dasharray="10 8" marker-end="url(#arrowCyan)" opacity=".9"/><path d="M 527.5 949.9 Q 663.1 920.9000000000001 726.7 913.5" fill="none" stroke="#1fd3df" stroke-width="3.4" stroke-linecap="round" stroke-dasharray="10 8" marker-end="url(#arrowCyan)" opacity=".9"/>
    
    <g transform="translate(512.5 987.9)">
      <path d="M-35 -24 L-20 -39 L-7 -30 L7 -30 L20 -39 L35 -24 L26 -8 L18 -13 L18 28 L-18 28 L-18 -13 L-26 -8 Z" fill="#081827" stroke="#f4c542" stroke-width="2.2"/>
      <path d="M-7 -30 Q0 -20 7 -30" fill="none" stroke="#f4c542" stroke-width="2"/>
      <text x="0" y="5" text-anchor="middle" fill="#f4c542" font-size="20" font-weight="900" font-family="Inter,Arial,sans-serif">GOL</text>
      <rect x="-55" y="33" width="110" height="26" rx="8" fill="#050b12" stroke="#f4c542" stroke-opacity=".8"/>
      <text x="0" y="51" text-anchor="middle" fill="#f7fbff" font-size="13" font-weight="800" font-family="Inter,Arial,sans-serif">Goleiro</text>
      <text x="0" y="75" text-anchor="middle" fill="#aebdca" font-size="11" font-weight="600" font-family="Inter,Arial,sans-serif">goleiro ofensivo • 80/100</text>
    </g>
    <g transform="translate(298.3 877.5)">
      <path d="M-35 -24 L-20 -39 L-7 -30 L7 -30 L20 -39 L35 -24 L26 -8 L18 -13 L18 28 L-18 28 L-18 -13 L-26 -8 Z" fill="#081827" stroke="#f4c542" stroke-width="2.2"/>
      <path d="M-7 -30 Q0 -20 7 -30" fill="none" stroke="#f4c542" stroke-width="2"/>
      <text x="0" y="5" text-anchor="middle" fill="#f4c542" font-size="20" font-weight="900" font-family="Inter,Arial,sans-serif">LE</text>
      <rect x="-55" y="33" width="110" height="26" rx="8" fill="#050b12" stroke="#f4c542" stroke-opacity=".8"/>
      <text x="0" y="51" text-anchor="middle" fill="#f7fbff" font-size="13" font-weight="800" font-family="Inter,Arial,sans-serif">Lateral E</text>
      <text x="0" y="75" text-anchor="middle" fill="#aebdca" font-size="11" font-weight="600" font-family="Inter,Arial,sans-serif">lateral defensivo • 81/100</text>
    </g>
    <g transform="translate(435.15 898.2)">
      <path d="M-35 -24 L-20 -39 L-7 -30 L7 -30 L20 -39 L35 -24 L26 -8 L18 -13 L18 28 L-18 28 L-18 -13 L-26 -8 Z" fill="#081827" stroke="#f4c542" stroke-width="2.2"/>
      <path d="M-7 -30 Q0 -20 7 -30" fill="none" stroke="#f4c542" stroke-width="2"/>
      <text x="0" y="5" text-anchor="middle" fill="#f4c542" font-size="20" font-weight="900" font-family="Inter,Arial,sans-serif">ZAG</text>
      <rect x="-55" y="33" width="110" height="26" rx="8" fill="#050b12" stroke="#f4c542" stroke-opacity=".8"/>
      <text x="0" y="51" text-anchor="middle" fill="#f7fbff" font-size="13" font-weight="800" font-family="Inter,Arial,sans-serif">Zagueiro 1</text>
      <text x="0" y="75" text-anchor="middle" fill="#aebdca" font-size="11" font-weight="600" font-family="Inter,Arial,sans-serif">zagueiro destruid… • 82/100</text>
    </g>
    <g transform="translate(589.85 898.2)">
      <path d="M-35 -24 L-20 -39 L-7 -30 L7 -30 L20 -39 L35 -24 L26 -8 L18 -13 L18 28 L-18 28 L-18 -13 L-26 -8 Z" fill="#081827" stroke="#f4c542" stroke-width="2.2"/>
      <path d="M-7 -30 Q0 -20 7 -30" fill="none" stroke="#f4c542" stroke-width="2"/>
      <text x="0" y="5" text-anchor="middle" fill="#f4c542" font-size="20" font-weight="900" font-family="Inter,Arial,sans-serif">ZAG</text>
      <rect x="-55" y="33" width="110" height="26" rx="8" fill="#050b12" stroke="#f4c542" stroke-opacity=".8"/>
      <text x="0" y="51" text-anchor="middle" fill="#f7fbff" font-size="13" font-weight="800" font-family="Inter,Arial,sans-serif">Zagueiro 2</text>
      <text x="0" y="75" text-anchor="middle" fill="#aebdca" font-size="11" font-weight="600" font-family="Inter,Arial,sans-serif">defensor criativo • 83/100</text>
    </g>
    <g transform="translate(726.7 877.5)">
      <path d="M-35 -24 L-20 -39 L-7 -30 L7 -30 L20 -39 L35 -24 L26 -8 L18 -13 L18 28 L-18 28 L-18 -13 L-26 -8 Z" fill="#081827" stroke="#f4c542" stroke-width="2.2"/>
      <path d="M-7 -30 Q0 -20 7 -30" fill="none" stroke="#f4c542" stroke-width="2"/>
      <text x="0" y="5" text-anchor="middle" fill="#f4c542" font-size="20" font-weight="900" font-family="Inter,Arial,sans-serif">LD</text>
      <rect x="-55" y="33" width="110" height="26" rx="8" fill="#050b12" stroke="#f4c542" stroke-opacity=".8"/>
      <text x="0" y="51" text-anchor="middle" fill="#f7fbff" font-size="13" font-weight="800" font-family="Inter,Arial,sans-serif">Lateral D</text>
      <text x="0" y="75" text-anchor="middle" fill="#aebdca" font-size="11" font-weight="600" font-family="Inter,Arial,sans-serif">lateral defensivo • 84/100</text>
    </g>
    <g transform="translate(441.1 760.2)">
      <path d="M-35 -24 L-20 -39 L-7 -30 L7 -30 L20 -39 L35 -24 L26 -8 L18 -13 L18 28 L-18 28 L-18 -13 L-26 -8 Z" fill="#081827" stroke="#f4c542" stroke-width="2.2"/>
      <path d="M-7 -30 Q0 -20 7 -30" fill="none" stroke="#f4c542" stroke-width="2"/>
      <text x="0" y="5" text-anchor="middle" fill="#f4c542" font-size="20" font-weight="900" font-family="Inter,Arial,sans-serif">VOL</text>
      <rect x="-55" y="33" width="110" height="26" rx="8" fill="#050b12" stroke="#f4c542" stroke-opacity=".8"/>
      <text x="0" y="51" text-anchor="middle" fill="#f7fbff" font-size="13" font-weight="800" font-family="Inter,Arial,sans-serif">Volante</text>
      <text x="0" y="75" text-anchor="middle" fill="#aebdca" font-size="11" font-weight="600" font-family="Inter,Arial,sans-serif">primeiro volante • 85/100</text>
    </g>
    <g transform="translate(595.8 760.2)">
      <path d="M-35 -24 L-20 -39 L-7 -30 L7 -30 L20 -39 L35 -24 L26 -8 L18 -13 L18 28 L-18 28 L-18 -13 L-26 -8 Z" fill="#081827" stroke="#f4c542" stroke-width="2.2"/>
      <path d="M-7 -30 Q0 -20 7 -30" fill="none" stroke="#f4c542" stroke-width="2"/>
      <text x="0" y="5" text-anchor="middle" fill="#f4c542" font-size="20" font-weight="900" font-family="Inter,Arial,sans-serif">MLG</text>
      <rect x="-55" y="33" width="110" height="26" rx="8" fill="#050b12" stroke="#f4c542" stroke-opacity=".8"/>
      <text x="0" y="51" text-anchor="middle" fill="#f7fbff" font-size="13" font-weight="800" font-family="Inter,Arial,sans-serif">Meia</text>
      <text x="0" y="75" text-anchor="middle" fill="#aebdca" font-size="11" font-weight="600" font-family="Inter,Arial,sans-serif">orquestrador • 86/100</text>
    </g>
    <g transform="translate(334 622.2)">
      <path d="M-35 -24 L-20 -39 L-7 -30 L7 -30 L20 -39 L35 -24 L26 -8 L18 -13 L18 28 L-18 28 L-18 -13 L-26 -8 Z" fill="#081827" stroke="#f4c542" stroke-width="2.2"/>
      <path d="M-7 -30 Q0 -20 7 -30" fill="none" stroke="#f4c542" stroke-width="2"/>
      <text x="0" y="5" text-anchor="middle" fill="#f4c542" font-size="20" font-weight="900" font-family="Inter,Arial,sans-serif">MAT</text>
      <rect x="-55" y="33" width="110" height="26" rx="8" fill="#050b12" stroke="#f4c542" stroke-opacity=".8"/>
      <text x="0" y="51" text-anchor="middle" fill="#f7fbff" font-size="13" font-weight="800" font-family="Inter,Arial,sans-serif">Meia E</text>
      <text x="0" y="75" text-anchor="middle" fill="#aebdca" font-size="11" font-weight="600" font-family="Inter,Arial,sans-serif">infiltracao • 87/100</text>
    </g>
    <g transform="translate(512.5 636)">
      <path d="M-35 -24 L-20 -39 L-7 -30 L7 -30 L20 -39 L35 -24 L26 -8 L18 -13 L18 28 L-18 28 L-18 -13 L-26 -8 Z" fill="#081827" stroke="#f4c542" stroke-width="2.2"/>
      <path d="M-7 -30 Q0 -20 7 -30" fill="none" stroke="#f4c542" stroke-width="2"/>
      <text x="0" y="5" text-anchor="middle" fill="#f4c542" font-size="20" font-weight="900" font-family="Inter,Arial,sans-serif">SA</text>
      <rect x="-55" y="33" width="110" height="26" rx="8" fill="#050b12" stroke="#f4c542" stroke-opacity=".8"/>
      <text x="0" y="51" text-anchor="middle" fill="#f7fbff" font-size="13" font-weight="800" font-family="Inter,Arial,sans-serif">Segundo atacante</text>
      <text x="0" y="75" text-anchor="middle" fill="#aebdca" font-size="11" font-weight="600" font-family="Inter,Arial,sans-serif">puxa marcacao • 88/100</text>
    </g>
    <g transform="translate(691 622.2)">
      <path d="M-35 -24 L-20 -39 L-7 -30 L7 -30 L20 -39 L35 -24 L26 -8 L18 -13 L18 28 L-18 28 L-18 -13 L-26 -8 Z" fill="#081827" stroke="#f4c542" stroke-width="2.2"/>
      <path d="M-7 -30 Q0 -20 7 -30" fill="none" stroke="#f4c542" stroke-width="2"/>
      <text x="0" y="5" text-anchor="middle" fill="#f4c542" font-size="20" font-weight="900" font-family="Inter,Arial,sans-serif">MAT</text>
      <rect x="-55" y="33" width="110" height="26" rx="8" fill="#050b12" stroke="#f4c542" stroke-opacity=".8"/>
      <text x="0" y="51" text-anchor="middle" fill="#f7fbff" font-size="13" font-weight="800" font-family="Inter,Arial,sans-serif">Meia D</text>
      <text x="0" y="75" text-anchor="middle" fill="#aebdca" font-size="11" font-weight="600" font-family="Inter,Arial,sans-serif">armador criativo • 89/100</text>
    </g>
    <g transform="translate(512.5 470.4)">
      <path d="M-35 -24 L-20 -39 L-7 -30 L7 -30 L20 -39 L35 -24 L26 -8 L18 -13 L18 28 L-18 28 L-18 -13 L-26 -8 Z" fill="#081827" stroke="#f4c542" stroke-width="2.2"/>
      <path d="M-7 -30 Q0 -20 7 -30" fill="none" stroke="#f4c542" stroke-width="2"/>
      <text x="0" y="5" text-anchor="middle" fill="#f4c542" font-size="20" font-weight="900" font-family="Inter,Arial,sans-serif">CA</text>
      <rect x="-55" y="33" width="110" height="26" rx="8" fill="#050b12" stroke="#f4c542" stroke-opacity=".8"/>
      <text x="0" y="51" text-anchor="middle" fill="#f7fbff" font-size="13" font-weight="800" font-family="Inter,Arial,sans-serif">Centroavante</text>
      <text x="0" y="75" text-anchor="middle" fill="#aebdca" font-size="11" font-weight="600" font-family="Inter,Arial,sans-serif">artilheiro • 90/100</text>
    </g>
  </g>

  <g>
    <rect x="822" y="360" width="184" height="500" rx="20" fill="url(#panelGradient)" stroke="#f4c542" stroke-width="2"/>
    <text x="914" y="405" text-anchor="middle" fill="#f4c542" font-size="23" font-weight="900" font-family="Inter,Arial,sans-serif">LEGENDA</text>
    <line x1="842" y1="434" x2="888" y2="434" stroke="#f4c542" stroke-width="5" marker-end="url(#arrowGold)"/><text x="900" y="429" fill="#eef5fb" font-size="14" font-family="Inter,Arial,sans-serif"><tspan x="900">Passe / apoio</tspan><tspan x="900" dy="19">ofensivo</tspan></text>
    <line x1="842" y1="505" x2="888" y2="505" stroke="#1fd3df" stroke-width="4" stroke-dasharray="9 7" marker-end="url(#arrowCyan)"/><text x="900" y="500" fill="#eef5fb" font-size="14" font-family="Inter,Arial,sans-serif"><tspan x="900">Reciclar /</tspan><tspan x="900" dy="19">reorganizar</tspan></text>
    <line x1="842" y1="576" x2="888" y2="576" stroke="#2e78e8" stroke-width="4" marker-end="url(#arrowBlue)"/><text x="900" y="571" fill="#eef5fb" font-size="14" font-family="Inter,Arial,sans-serif"><tspan x="900">Defesa /</tspan><tspan x="900" dy="19">compactação</tspan></text>
    <circle cx="864" cy="660" r="22" fill="none" stroke="#f4c542" stroke-width="4"/><circle cx="864" cy="660" r="8" fill="#f4c542"/><text x="900" y="650" fill="#eef5fb" font-size="14" font-family="Inter,Arial,sans-serif"><tspan x="900">Foco:</tspan><tspan x="900" dy="19">segurança,</tspan><tspan x="900" dy="19">construção e</tspan><tspan x="900" dy="19">finalização</tspan></text>
    <text x="914" y="790" fill="#c8d4df" font-size="14" font-weight="700" text-anchor="middle" font-family="Inter,Arial,sans-serif"><tspan x="914" dy="0">Segurança,</tspan><tspan x="914" dy="19">construção curta e</tspan><tspan x="914" dy="19">finalização</tspan><tspan x="914" dy="19">inteligente.</tspan></text>
  </g>

  <g>
    <rect x="18" y="1140" width="988" height="252" rx="22" fill="url(#panelGradient)" stroke="#33495b" stroke-width="2"/>
    
    <g>
      <text x="54" y="1183" fill="#f4c542" font-size="21" font-weight="900" font-family="Inter,Arial,sans-serif">PRINCÍPIOS OFENSIVOS</text>
      <circle cx="60" cy="1212" r="4" fill="#f4c542"/><text x="74" y="1217" fill="#edf4ff" font-size="15" font-weight="500" text-anchor="start" font-family="Inter,Arial,sans-serif"><tspan x="74" dy="0">Use Posse de bola para controlar o</tspan></text><circle cx="60" cy="1237" r="4" fill="#f4c542"/><text x="74" y="1242" fill="#edf4ff" font-size="15" font-weight="500" text-anchor="start" font-family="Inter,Arial,sans-serif"><tspan x="74" dy="0">ritmo.</tspan></text><circle cx="60" cy="1262" r="4" fill="#f4c542"/><text x="74" y="1267" fill="#edf4ff" font-size="15" font-weight="500" text-anchor="start" font-family="Inter,Arial,sans-serif"><tspan x="74" dy="0">Triângulos curtos e corredores</tspan></text><circle cx="60" cy="1287" r="4" fill="#f4c542"/><text x="74" y="1292" fill="#edf4ff" font-size="15" font-weight="500" text-anchor="start" font-family="Inter,Arial,sans-serif"><tspan x="74" dy="0">internos.</tspan></text><circle cx="60" cy="1312" r="4" fill="#f4c542"/><text x="74" y="1317" fill="#edf4ff" font-size="15" font-weight="500" text-anchor="start" font-family="Inter,Arial,sans-serif"><tspan x="74" dy="0">Crie superioridade com</tspan></text><circle cx="60" cy="1337" r="4" fill="#f4c542"/><text x="74" y="1342" fill="#edf4ff" font-size="15" font-weight="500" text-anchor="start" font-family="Inter,Arial,sans-serif"><tspan x="74" dy="0">aproximações.</tspan></text><circle cx="60" cy="1362" r="4" fill="#f4c542"/><text x="74" y="1367" fill="#edf4ff" font-size="15" font-weight="500" text-anchor="start" font-family="Inter,Arial,sans-serif"><tspan x="74" dy="0">Acelere apenas quando a linha</tspan></text><circle cx="60" cy="1387" r="4" fill="#f4c542"/><text x="74" y="1392" fill="#edf4ff" font-size="15" font-weight="500" text-anchor="start" font-family="Inter,Arial,sans-serif"><tspan x="74" dy="0">abrir.</tspan></text>
      <line x1="341" y1="1165" x2="341" y2="1413" stroke="#324656" stroke-width="1"/>
    </g>
    
    <g>
      <text x="376" y="1183" fill="#3e8cff" font-size="21" font-weight="900" font-family="Inter,Arial,sans-serif">PRINCÍPIOS DEFENSIVOS</text>
      <circle cx="382" cy="1212" r="4" fill="#3e8cff"/><text x="396" y="1217" fill="#edf4ff" font-size="15" font-weight="500" text-anchor="start" font-family="Inter,Arial,sans-serif"><tspan x="396" dy="0">Bloco compacto e linhas próximas.</tspan></text><circle cx="382" cy="1237" r="4" fill="#3e8cff"/><text x="396" y="1242" fill="#edf4ff" font-size="15" font-weight="500" text-anchor="start" font-family="Inter,Arial,sans-serif"><tspan x="396" dy="0">Proteja a entrada da área.</tspan></text><circle cx="382" cy="1262" r="4" fill="#3e8cff"/><text x="396" y="1267" fill="#edf4ff" font-size="15" font-weight="500" text-anchor="start" font-family="Inter,Arial,sans-serif"><tspan x="396" dy="0">Intercepte antes de perseguir.</tspan></text><circle cx="382" cy="1287" r="4" fill="#3e8cff"/><text x="396" y="1292" fill="#edf4ff" font-size="15" font-weight="500" text-anchor="start" font-family="Inter,Arial,sans-serif"><tspan x="396" dy="0">Cada jogador cobre o próprio</tspan></text><circle cx="382" cy="1312" r="4" fill="#3e8cff"/><text x="396" y="1317" fill="#edf4ff" font-size="15" font-weight="500" text-anchor="start" font-family="Inter,Arial,sans-serif"><tspan x="396" dy="0">espaço.</tspan></text>
      <line x1="663" y1="1165" x2="663" y2="1413" stroke="#324656" stroke-width="1"/>
    </g>
    
    <g>
      <text x="697" y="1183" fill="#f4c542" font-size="21" font-weight="900" font-family="Inter,Arial,sans-serif">POR QUE RENDE</text>
      <circle cx="703" cy="1212" r="4" fill="#f4c542"/><text x="717" y="1217" fill="#edf4ff" font-size="15" font-weight="500" text-anchor="start" font-family="Inter,Arial,sans-serif"><tspan x="717" dy="0">Aproxima os setores.</tspan></text><circle cx="703" cy="1237" r="4" fill="#f4c542"/><text x="717" y="1242" fill="#edf4ff" font-size="15" font-weight="500" text-anchor="start" font-family="Inter,Arial,sans-serif"><tspan x="717" dy="0">Cria linhas de passe curtas.</tspan></text><circle cx="703" cy="1262" r="4" fill="#f4c542"/><text x="717" y="1267" fill="#edf4ff" font-size="15" font-weight="500" text-anchor="start" font-family="Inter,Arial,sans-serif"><tspan x="717" dy="0">Reduz riscos desnecessários.</tspan></text><circle cx="703" cy="1287" r="4" fill="#f4c542"/><text x="717" y="1292" fill="#edf4ff" font-size="15" font-weight="500" text-anchor="start" font-family="Inter,Arial,sans-serif"><tspan x="717" dy="0">Mantém cobertura após perder a</tspan></text><circle cx="703" cy="1312" r="4" fill="#f4c542"/><text x="717" y="1317" fill="#edf4ff" font-size="15" font-weight="500" text-anchor="start" font-family="Inter,Arial,sans-serif"><tspan x="717" dy="0">bola.</tspan></text>
      <line x1="967" y1="1165" x2="967" y2="1413" stroke="#324656" stroke-width="1"/>
    </g>
  </g>

  <g>
    <rect x="35" y="1407" width="954" height="75" rx="18" fill="#160a0d" stroke="#ff5a5f" stroke-width="2"/>
    <text x="63" y="1438" fill="#ff5a5f" font-size="18" font-weight="900" font-family="Inter,Arial,sans-serif">ERROS A EVITAR</text>
    <text x="250" y="1435" fill="#f1c4c7" font-size="14" font-weight="650" font-family="Inter,Arial,sans-serif">× Forçar passes verticais sem opção.</text><text x="605" y="1435" fill="#f1c4c7" font-size="14" font-weight="650" font-family="Inter,Arial,sans-serif">× Sair com o zagueiro para perseguir.</text><text x="250" y="1462" fill="#f1c4c7" font-size="14" font-weight="650" font-family="Inter,Arial,sans-serif">× Perder a posse no centro.</text>
  </g>

  <text x="512" y="1515" text-anchor="middle" fill="#7f93a4" font-size="13" font-weight="600" font-family="Inter,Arial,sans-serif">GERADO LOCALMENTE PELO BUILDMASTER • SEM API PAGA • SVG/PNG EDITÁVEL</text>
</svg>