<?xml version="1.0" encoding="UTF-8"?><svg xmlns="http://www.w3.org/2000/svg" width="1024" height="1536" viewBox="0 0 1024 1536" role="img" aria-labelledby="posterTitle posterDescription"><title id="posterTitle">BuildMaster Elite Tático 2026 — 4-2-2-2</title><desc id="posterDescription">Infográfico tático criado localmente pelo BuildMaster, sem serviço externo.</desc><defs><linearGradient id="bg" x1="0" y1="0" x2="1" y2="1"><stop offset="0" stop-color="#02070d"/><stop offset=".55" stop-color="#07131f"/><stop offset="1" stop-color="#010308"/></linearGradient><linearGradient id="panelGradient" x1="0" y1="0" x2="0" y2="1"><stop offset="0" stop-color="#111f2b"/><stop offset="1" stop-color="#07111b"/></linearGradient><linearGradient id="field" x1="0" y1="0" x2="1" y2="1"><stop offset="0" stop-color="#24532d"/><stop offset="1" stop-color="#0f2313"/></linearGradient><filter id="glow"><feGaussianBlur stdDeviation="4" result="blur"/><feMerge><feMergeNode in="blur"/><feMergeNode in="SourceGraphic"/></feMerge></filter><pattern id="grain" width="14" height="14" patternUnits="userSpaceOnUse"><circle cx="2" cy="3" r=".7" fill="#fff" opacity=".05"/><circle cx="10" cy="11" r=".5" fill="#fff" opacity=".04"/></pattern><marker id="arrowGold" markerWidth="9" markerHeight="9" refX="7" refY="4.5" orient="auto"><path d="M0,0 L9,4.5 L0,9 z" fill="#f4c542"/></marker><marker id="arrowCyan" markerWidth="9" markerHeight="9" refX="7" refY="4.5" orient="auto"><path d="M0,0 L9,4.5 L0,9 z" fill="#20d7e4"/></marker><marker id="arrowBlue" markerWidth="9" markerHeight="9" refX="7" refY="4.5" orient="auto"><path d="M0,0 L9,4.5 L0,9 z" fill="#2e78e8"/></marker><marker id="arrowMovement" markerWidth="9" markerHeight="9" refX="7" refY="4.5" orient="auto"><path d="M0,0 L9,4.5 L0,9 z" fill="#f7dc63"/></marker></defs><rect width="1024" height="1536" fill="url(#bg)"/><rect width="1024" height="1536" fill="url(#grain)"/><path d="M0 110 L125 0 M0 170 L185 0 M840 1536 L1024 1352 M900 1536 L1024 1412" stroke="#f4c542" stroke-width="3" opacity=".65"/><g filter="url(#glow)"><circle cx="92" cy="82" r="42" fill="#071522" stroke="#f4c542" stroke-width="3"/><path d="M67 82 Q92 57 117 82 Q92 107 67 82 Z" fill="none" stroke="#f4c542" stroke-width="7"/><text x="151" y="95" fill="#f4c542" font-size="46" font-weight="1000" letter-spacing="1.4" font-family="Inter,Arial,sans-serif">BUILDMASTER ELITE TÁTICO 2026</text></g><text x="512" y="137" fill="#c3d0dc" font-size="21" font-weight="700" text-anchor="middle" font-family="Inter,Arial,sans-serif"><tspan x="512" dy="0">4-2-2-2 • Base curta • v27.33</tspan></text><g><rect x="96" y="162" width="832" height="62" rx="16" fill="#07111b" stroke="#f4c542" stroke-width="2"/><text x="127" y="201" fill="#f2f6fa" font-size="24" font-weight="800" font-family="Inter,Arial,sans-serif">ESTILO DO TÉCNICO:</text><text x="415" y="201" fill="#f4c542" font-size="24" font-weight="900" font-family="Inter,Arial,sans-serif">POSSE DE BOLA</text><rect x="96" y="236" width="832" height="62" rx="16" fill="#07111b" stroke="#f4c542" stroke-width="2"/><text x="127" y="275" fill="#f2f6fa" font-size="24" font-weight="800" font-family="Inter,Arial,sans-serif">FORMAÇÃO:</text><text x="300" y="275" fill="#f4c542" font-size="24" font-weight="900" font-family="Inter,Arial,sans-serif">4-2-2-2</text></g><g><rect x="18" y="330" width="185" height="190" rx="18" fill="url(#panelGradient)" stroke="#f4c542" stroke-width="2"/><rect x="27" y="339" width="167" height="40" rx="11" fill="#0b1724" stroke="#f4c542" stroke-opacity=".55"/><text x="36" y="366" fill="#f4c542" font-size="14" font-weight="900" font-family="Inter,Arial,sans-serif">◎ 1. PASSE CERTO</text><circle cx="40" cy="396" r="3" fill="#f4c542"/><text x="50" y="400" fill="#edf4ff" font-size="11" font-weight="500" text-anchor="start" font-family="Inter,Arial,sans-serif"><tspan x="50" dy="0">Prefira passes</tspan></text><circle cx="40" cy="414" r="3" fill="#f4c542"/><text x="50" y="418" fill="#edf4ff" font-size="11" font-weight="500" text-anchor="start" font-family="Inter,Arial,sans-serif"><tspan x="50" dy="0">curtos…</tspan></text><circle cx="40" cy="432" r="3" fill="#f4c542"/><text x="50" y="436" fill="#edf4ff" font-size="11" font-weight="500" text-anchor="start" font-family="Inter,Arial,sans-serif"><tspan x="50" dy="0">Progrida pelos</tspan></text><circle cx="40" cy="450" r="3" fill="#f4c542"/><text x="50" y="454" fill="#edf4ff" font-size="11" font-weight="500" text-anchor="start" font-family="Inter,Arial,sans-serif"><tspan x="50" dy="0">meias…</tspan></text><circle cx="40" cy="468" r="3" fill="#f4c542"/><text x="50" y="472" fill="#edf4ff" font-size="11" font-weight="500" text-anchor="start" font-family="Inter,Arial,sans-serif"><tspan x="50" dy="0">Mantenha triângulos</tspan></text><circle cx="40" cy="486" r="3" fill="#f4c542"/><text x="50" y="490" fill="#edf4ff" font-size="11" font-weight="500" text-anchor="start" font-family="Inter,Arial,sans-serif"><tspan x="50" dy="0">ativos.</tspan></text><circle cx="40" cy="504" r="3" fill="#f4c542"/><text x="50" y="508" fill="#edf4ff" font-size="11" font-weight="500" text-anchor="start" font-family="Inter,Arial,sans-serif"><tspan x="50" dy="0">Evite passes longos</tspan></text></g><g><rect x="18" y="530" width="185" height="190" rx="18" fill="url(#panelGradient)" stroke="#20d7e4" stroke-width="2"/><rect x="27" y="539" width="167" height="40" rx="11" fill="#0b1724" stroke="#20d7e4" stroke-opacity=".55"/><text x="36" y="566" fill="#20d7e4" font-size="14" font-weight="900" font-family="Inter,Arial,sans-serif">↻ 2. VOLTAR A BOLA</text><circle cx="40" cy="596" r="3" fill="#20d7e4"/><text x="50" y="600" fill="#edf4ff" font-size="11" font-weight="500" text-anchor="start" font-family="Inter,Arial,sans-serif"><tspan x="50" dy="0">Sob pressão, volte</tspan></text><circle cx="40" cy="614" r="3" fill="#20d7e4"/><text x="50" y="618" fill="#edf4ff" font-size="11" font-weight="500" text-anchor="start" font-family="Inter,Arial,sans-serif"><tspan x="50" dy="0">a…</tspan></text><circle cx="40" cy="632" r="3" fill="#20d7e4"/><text x="50" y="636" fill="#edf4ff" font-size="11" font-weight="500" text-anchor="start" font-family="Inter,Arial,sans-serif"><tspan x="50" dy="0">Use o goleiro e os</tspan></text><circle cx="40" cy="650" r="3" fill="#20d7e4"/><text x="50" y="654" fill="#edf4ff" font-size="11" font-weight="500" text-anchor="start" font-family="Inter,Arial,sans-serif"><tspan x="50" dy="0">zagueiros.</tspan></text><circle cx="40" cy="668" r="3" fill="#20d7e4"/><text x="50" y="672" fill="#edf4ff" font-size="11" font-weight="500" text-anchor="start" font-family="Inter,Arial,sans-serif"><tspan x="50" dy="0">Reorganize antes de</tspan></text><circle cx="40" cy="686" r="3" fill="#20d7e4"/><text x="50" y="690" fill="#edf4ff" font-size="11" font-weight="500" text-anchor="start" font-family="Inter,Arial,sans-serif"><tspan x="50" dy="0">acelerar.</tspan></text></g><g><rect x="18" y="730" width="185" height="190" rx="18" fill="url(#panelGradient)" stroke="#f4c542" stroke-width="2"/><rect x="27" y="739" width="167" height="40" rx="11" fill="#0b1724" stroke="#f4c542" stroke-opacity=".55"/><text x="36" y="766" fill="#f4c542" font-size="16" font-weight="900" font-family="Inter,Arial,sans-serif">↗ 3. ATACAR</text><circle cx="40" cy="796" r="3" fill="#f4c542"/><text x="50" y="800" fill="#edf4ff" font-size="11" font-weight="500" text-anchor="start" font-family="Inter,Arial,sans-serif"><tspan x="50" dy="0">Ataque os espaços</tspan></text><circle cx="40" cy="814" r="3" fill="#f4c542"/><text x="50" y="818" fill="#edf4ff" font-size="11" font-weight="500" text-anchor="start" font-family="Inter,Arial,sans-serif"><tspan x="50" dy="0">entre…</tspan></text><circle cx="40" cy="832" r="3" fill="#f4c542"/><text x="50" y="836" fill="#edf4ff" font-size="11" font-weight="500" text-anchor="start" font-family="Inter,Arial,sans-serif"><tspan x="50" dy="0">Dê apoio e infiltre</tspan></text><circle cx="40" cy="850" r="3" fill="#f4c542"/><text x="50" y="854" fill="#edf4ff" font-size="11" font-weight="500" text-anchor="start" font-family="Inter,Arial,sans-serif"><tspan x="50" dy="0">na…</tspan></text><circle cx="40" cy="868" r="3" fill="#f4c542"/><text x="50" y="872" fill="#edf4ff" font-size="11" font-weight="500" text-anchor="start" font-family="Inter,Arial,sans-serif"><tspan x="50" dy="0">Finalize somente</tspan></text><circle cx="40" cy="886" r="3" fill="#f4c542"/><text x="50" y="890" fill="#edf4ff" font-size="11" font-weight="500" text-anchor="start" font-family="Inter,Arial,sans-serif"><tspan x="50" dy="0">com…</tspan></text></g><g><rect x="18" y="930" width="185" height="190" rx="18" fill="url(#panelGradient)" stroke="#3e8cff" stroke-width="2"/><rect x="27" y="939" width="167" height="40" rx="11" fill="#0b1724" stroke="#3e8cff" stroke-opacity=".55"/><text x="36" y="966" fill="#3e8cff" font-size="16" font-weight="900" font-family="Inter,Arial,sans-serif">⬡ 4. DEFENDER</text><circle cx="40" cy="996" r="3" fill="#3e8cff"/><text x="50" y="1000" fill="#edf4ff" font-size="11" font-weight="500" text-anchor="start" font-family="Inter,Arial,sans-serif"><tspan x="50" dy="0">Mantenha a linha</tspan></text><circle cx="40" cy="1014" r="3" fill="#3e8cff"/><text x="50" y="1018" fill="#edf4ff" font-size="11" font-weight="500" text-anchor="start" font-family="Inter,Arial,sans-serif"><tspan x="50" dy="0">compacta.</tspan></text><circle cx="40" cy="1032" r="3" fill="#3e8cff"/><text x="50" y="1036" fill="#edf4ff" font-size="11" font-weight="500" text-anchor="start" font-family="Inter,Arial,sans-serif"><tspan x="50" dy="0">Feche o centro</tspan></text><circle cx="40" cy="1050" r="3" fill="#3e8cff"/><text x="50" y="1054" fill="#edf4ff" font-size="11" font-weight="500" text-anchor="start" font-family="Inter,Arial,sans-serif"><tspan x="50" dy="0">primeiro.</tspan></text><circle cx="40" cy="1068" r="3" fill="#3e8cff"/><text x="50" y="1072" fill="#edf4ff" font-size="11" font-weight="500" text-anchor="start" font-family="Inter,Arial,sans-serif"><tspan x="50" dy="0">Pressione sem</tspan></text><circle cx="40" cy="1086" r="3" fill="#3e8cff"/><text x="50" y="1090" fill="#edf4ff" font-size="11" font-weight="500" text-anchor="start" font-family="Inter,Arial,sans-serif"><tspan x="50" dy="0">abandonar…</tspan></text></g><g><rect x="215" y="360" width="595" height="690" rx="20" fill="url(#field)" stroke="#9bb788" stroke-width="3"/><rect x="231" y="376" width="563" height="658" fill="none" stroke="#d6e1c9" stroke-opacity=".58" stroke-width="2"/><line x1="231" y1="705" x2="794" y2="705" stroke="#d6e1c9" stroke-opacity=".58" stroke-width="2"/><circle cx="512.5" cy="705" r="56.525" fill="none" stroke="#d6e1c9" stroke-opacity=".58" stroke-width="2"/><circle cx="512.5" cy="705" r="4" fill="#d6e1c9" opacity=".7"/><rect x="369.70000000000005" y="376" width="285.59999999999997" height="103.5" fill="none" stroke="#d6e1c9" stroke-opacity=".58" stroke-width="2"/><rect x="369.70000000000005" y="930.5" width="285.59999999999997" height="103.5" fill="none" stroke="#d6e1c9" stroke-opacity=".58" stroke-width="2"/><g><path d="M 423.25 490.6 Q 500.5 453 601.75 422.6" fill="none" stroke="#f4c542" stroke-width="4" stroke-linecap="round"  marker-end="url(#arrowGold)" opacity=".92"/><g><rect x="458.5" y="437" width="84" height="22" rx="8" fill="#06101a" stroke="#f4c542" stroke-opacity=".8"/><text x="500.5" y="453" text-anchor="middle" fill="#f5f8fb" font-size="10" font-weight="700" font-family="Inter,Arial,sans-serif">apoio curto</text></g></g><g><path d="M 381.6 642.4 Q 399.35 684.15 441.1 733.0999999999999" fill="none" stroke="#f4c542" stroke-width="4" stroke-linecap="round"  marker-end="url(#arrowGold)" opacity=".92"/></g><g><path d="M 441.1 801.0999999999999 Q 524.5 763.4999999999999 583.9 733.0999999999999" fill="none" stroke="#f4c542" stroke-width="4" stroke-linecap="round"  marker-end="url(#arrowGold)" opacity=".92"/></g><g><path d="M 583.9 733.0999999999999 Q 601.65 684.15 643.4 642.4" fill="none" stroke="#f4c542" stroke-width="4" stroke-linecap="round"  marker-end="url(#arrowGold)" opacity=".92"/><g><rect x="559.65" y="668.15" width="84" height="22" rx="8" fill="#06101a" stroke="#f4c542" stroke-opacity=".8"/><text x="601.65" y="684.15" text-anchor="middle" fill="#f5f8fb" font-size="10" font-weight="700" font-family="Inter,Arial,sans-serif">reciclar</text></g></g><g><path d="M 274.5 890.8 Q 342.825 873.9 435.15 864.2" fill="none" stroke="#2e78e8" stroke-width="3.6" stroke-linecap="round"  marker-end="url(#arrowBlue)" opacity=".92"/></g><g><path d="M 435.15 932.2 Q 524.5 894.6 589.85 864.2" fill="none" stroke="#2e78e8" stroke-width="3.6" stroke-linecap="round"  marker-end="url(#arrowBlue)" opacity=".92"/></g><g><path d="M 589.85 864.2 Q 658.175 873.9 750.5 890.8" fill="none" stroke="#2e78e8" stroke-width="3.6" stroke-linecap="round"  marker-end="url(#arrowBlue)" opacity=".92"/></g><g><path d="M 381.6 574.4 Q 376.425 524.7 423.25 490.6" fill="none" stroke="#f4c542" stroke-width="4" stroke-linecap="round"  marker-end="url(#arrowGold)" opacity=".92"/></g><g><path d="M 441.1 733.0999999999999 Q 458.175 604.05 423.25 490.6" fill="none" stroke="#f4c542" stroke-width="4" stroke-linecap="round"  marker-end="url(#arrowGold)" opacity=".92"/></g><g><path d="M 583.9 733.0999999999999 Q 566.825 604.05 601.75 490.6" fill="none" stroke="#f4c542" stroke-width="4" stroke-linecap="round"  marker-end="url(#arrowGold)" opacity=".92"/></g><g><path d="M 643.4 574.4 Q 648.575 524.7 601.75 490.6" fill="none" stroke="#f4c542" stroke-width="4" stroke-linecap="round"  marker-end="url(#arrowGold)" opacity=".92"/></g><g><path d="M 274.5 822.8 Q 310.05 727.1999999999999 381.6 642.4" fill="none" stroke="#2e78e8" stroke-width="3.6" stroke-linecap="round"  marker-end="url(#arrowBlue)" opacity=".92"/></g><g transform="translate(423.25 456.6)"><path d="M-35 -24 L-20 -39 L-7 -30 L7 -30 L20 -39 L35 -24 L26 -8 L18 -13 L18 28 L-18 28 L-18 -13 L-26 -8 Z" fill="#081827" stroke="#f4c542" stroke-width="2.2"/><path d="M-7 -30 Q0 -20 7 -30" fill="none" stroke="#f4c542" stroke-width="2"/><text x="0" y="5" text-anchor="middle" fill="#f4c542" font-size="20" font-weight="900" font-family="Inter,Arial,sans-serif">CA E</text><rect x="-57" y="33" width="114" height="26" rx="8" fill="#050b12" stroke="#f4c542" stroke-opacity=".8"/><text x="0" y="51" text-anchor="middle" fill="#f7fbff" font-size="13" font-weight="800" font-family="Inter,Arial,sans-serif">Aproximar, tabela…</text></g><g transform="translate(601.75 456.6)"><path d="M-35 -24 L-20 -39 L-7 -30 L7 -30 L20 -39 L35 -24 L26 -8 L18 -13 L18 28 L-18 28 L-18 -13 L-26 -8 Z" fill="#081827" stroke="#f4c542" stroke-width="2.2"/><path d="M-7 -30 Q0 -20 7 -30" fill="none" stroke="#f4c542" stroke-width="2"/><text x="0" y="5" text-anchor="middle" fill="#f4c542" font-size="20" font-weight="900" font-family="Inter,Arial,sans-serif">CA D</text><rect x="-57" y="33" width="114" height="26" rx="8" fill="#050b12" stroke="#f4c542" stroke-opacity=".8"/><text x="0" y="51" text-anchor="middle" fill="#f7fbff" font-size="13" font-weight="800" font-family="Inter,Arial,sans-serif">Atacar profundida…</text></g><g transform="translate(381.6 608.4)"><path d="M-35 -24 L-20 -39 L-7 -30 L7 -30 L20 -39 L35 -24 L26 -8 L18 -13 L18 28 L-18 28 L-18 -13 L-26 -8 Z" fill="#081827" stroke="#f4c542" stroke-width="2.2"/><path d="M-7 -30 Q0 -20 7 -30" fill="none" stroke="#f4c542" stroke-width="2"/><text x="0" y="5" text-anchor="middle" fill="#f4c542" font-size="20" font-weight="900" font-family="Inter,Arial,sans-serif">MEI E</text><rect x="-57" y="33" width="114" height="26" rx="8" fill="#050b12" stroke="#f4c542" stroke-opacity=".8"/><text x="0" y="51" text-anchor="middle" fill="#f7fbff" font-size="13" font-weight="800" font-family="Inter,Arial,sans-serif">Criar entre linha…</text></g><g transform="translate(643.4 608.4)"><path d="M-35 -24 L-20 -39 L-7 -30 L7 -30 L20 -39 L35 -24 L26 -8 L18 -13 L18 28 L-18 28 L-18 -13 L-26 -8 Z" fill="#081827" stroke="#f4c542" stroke-width="2.2"/><path d="M-7 -30 Q0 -20 7 -30" fill="none" stroke="#f4c542" stroke-width="2"/><text x="0" y="5" text-anchor="middle" fill="#f4c542" font-size="20" font-weight="900" font-family="Inter,Arial,sans-serif">MEI D</text><rect x="-57" y="33" width="114" height="26" rx="8" fill="#050b12" stroke="#f4c542" stroke-opacity=".8"/><text x="0" y="51" text-anchor="middle" fill="#f7fbff" font-size="13" font-weight="800" font-family="Inter,Arial,sans-serif">Produzir último p…</text></g><g transform="translate(441.1 767.0999999999999)"><path d="M-35 -24 L-20 -39 L-7 -30 L7 -30 L20 -39 L35 -24 L26 -8 L18 -13 L18 28 L-18 28 L-18 -13 L-26 -8 Z" fill="#081827" stroke="#f4c542" stroke-width="2.2"/><path d="M-7 -30 Q0 -20 7 -30" fill="none" stroke="#f4c542" stroke-width="2"/><text x="0" y="5" text-anchor="middle" fill="#f4c542" font-size="20" font-weight="900" font-family="Inter,Arial,sans-serif">VOL E</text><rect x="-57" y="33" width="114" height="26" rx="8" fill="#050b12" stroke="#f4c542" stroke-opacity=".8"/><text x="0" y="51" text-anchor="middle" fill="#f7fbff" font-size="13" font-weight="800" font-family="Inter,Arial,sans-serif">Fixar e proteger…</text></g><g transform="translate(583.9 767.0999999999999)"><path d="M-35 -24 L-20 -39 L-7 -30 L7 -30 L20 -39 L35 -24 L26 -8 L18 -13 L18 28 L-18 28 L-18 -13 L-26 -8 Z" fill="#081827" stroke="#f4c542" stroke-width="2.2"/><path d="M-7 -30 Q0 -20 7 -30" fill="none" stroke="#f4c542" stroke-width="2"/><text x="0" y="5" text-anchor="middle" fill="#f4c542" font-size="20" font-weight="900" font-family="Inter,Arial,sans-serif">VOL D</text><rect x="-57" y="33" width="114" height="26" rx="8" fill="#050b12" stroke="#f4c542" stroke-opacity=".8"/><text x="0" y="51" text-anchor="middle" fill="#f7fbff" font-size="13" font-weight="800" font-family="Inter,Arial,sans-serif">Dar o primeiro pa…</text></g><g transform="translate(274.5 856.8)"><path d="M-35 -24 L-20 -39 L-7 -30 L7 -30 L20 -39 L35 -24 L26 -8 L18 -13 L18 28 L-18 28 L-18 -13 L-26 -8 Z" fill="#081827" stroke="#f4c542" stroke-width="2.2"/><path d="M-7 -30 Q0 -20 7 -30" fill="none" stroke="#f4c542" stroke-width="2"/><text x="0" y="5" text-anchor="middle" fill="#f4c542" font-size="20" font-weight="900" font-family="Inter,Arial,sans-serif">LE</text><rect x="-57" y="33" width="114" height="26" rx="8" fill="#050b12" stroke="#f4c542" stroke-opacity=".8"/><text x="0" y="51" text-anchor="middle" fill="#f7fbff" font-size="13" font-weight="800" font-family="Inter,Arial,sans-serif">Controlar o corre…</text></g><g transform="translate(435.15 898.2)"><path d="M-35 -24 L-20 -39 L-7 -30 L7 -30 L20 -39 L35 -24 L26 -8 L18 -13 L18 28 L-18 28 L-18 -13 L-26 -8 Z" fill="#081827" stroke="#f4c542" stroke-width="2.2"/><path d="M-7 -30 Q0 -20 7 -30" fill="none" stroke="#f4c542" stroke-width="2"/><text x="0" y="5" text-anchor="middle" fill="#f4c542" font-size="20" font-weight="900" font-family="Inter,Arial,sans-serif">ZAG E</text><rect x="-57" y="33" width="114" height="26" rx="8" fill="#050b12" stroke="#f4c542" stroke-opacity=".8"/><text x="0" y="51" text-anchor="middle" fill="#f7fbff" font-size="13" font-weight="800" font-family="Inter,Arial,sans-serif">Cobertura e saída…</text></g><g transform="translate(589.85 898.2)"><path d="M-35 -24 L-20 -39 L-7 -30 L7 -30 L20 -39 L35 -24 L26 -8 L18 -13 L18 28 L-18 28 L-18 -13 L-26 -8 Z" fill="#081827" stroke="#f4c542" stroke-width="2.2"/><path d="M-7 -30 Q0 -20 7 -30" fill="none" stroke="#f4c542" stroke-width="2"/><text x="0" y="5" text-anchor="middle" fill="#f4c542" font-size="20" font-weight="900" font-family="Inter,Arial,sans-serif">ZAG D</text><rect x="-57" y="33" width="114" height="26" rx="8" fill="#050b12" stroke="#f4c542" stroke-opacity=".8"/><text x="0" y="51" text-anchor="middle" fill="#f7fbff" font-size="13" font-weight="800" font-family="Inter,Arial,sans-serif">Combate e proteçã…</text></g><g transform="translate(750.5 856.8)"><path d="M-35 -24 L-20 -39 L-7 -30 L7 -30 L20 -39 L35 -24 L26 -8 L18 -13 L18 28 L-18 28 L-18 -13 L-26 -8 Z" fill="#081827" stroke="#f4c542" stroke-width="2.2"/><path d="M-7 -30 Q0 -20 7 -30" fill="none" stroke="#f4c542" stroke-width="2"/><text x="0" y="5" text-anchor="middle" fill="#f4c542" font-size="20" font-weight="900" font-family="Inter,Arial,sans-serif">LD</text><rect x="-57" y="33" width="114" height="26" rx="8" fill="#050b12" stroke="#f4c542" stroke-opacity=".8"/><text x="0" y="51" text-anchor="middle" fill="#f7fbff" font-size="13" font-weight="800" font-family="Inter,Arial,sans-serif">Controlar o corre…</text></g><g transform="translate(512.5 1001.7)"><path d="M-35 -24 L-20 -39 L-7 -30 L7 -30 L20 -39 L35 -24 L26 -8 L18 -13 L18 28 L-18 28 L-18 -13 L-26 -8 Z" fill="#081827" stroke="#f4c542" stroke-width="2.2"/><path d="M-7 -30 Q0 -20 7 -30" fill="none" stroke="#f4c542" stroke-width="2"/><text x="0" y="5" text-anchor="middle" fill="#f4c542" font-size="20" font-weight="900" font-family="Inter,Arial,sans-serif">GOL</text><rect x="-57" y="33" width="114" height="26" rx="8" fill="#050b12" stroke="#f4c542" stroke-opacity=".8"/><text x="0" y="51" text-anchor="middle" fill="#f7fbff" font-size="13" font-weight="800" font-family="Inter,Arial,sans-serif">Proteger o gol e…</text></g></g><g><rect x="822" y="360" width="184" height="500" rx="20" fill="url(#panelGradient)" stroke="#f4c542" stroke-width="2"/><text x="914" y="404" text-anchor="middle" fill="#f4c542" font-size="23" font-weight="900" font-family="Inter,Arial,sans-serif">LEGENDA</text><line x1="840" y1="435" x2="884" y2="435" stroke="#f4c542" stroke-width="5" marker-end="url(#arrowGold)"/><text x="899" y="435" fill="#edf4ff" font-size="11" font-weight="500" text-anchor="start" font-family="Inter,Arial,sans-serif"><tspan x="899" dy="0">Passe /</tspan><tspan x="899" dy="16">apoio…</tspan></text><line x1="840" y1="497" x2="884" y2="497" stroke="#20d7e4" stroke-width="4" stroke-dasharray="9 7" marker-end="url(#arrowCyan)"/><text x="899" y="497" fill="#edf4ff" font-size="11" font-weight="500" text-anchor="start" font-family="Inter,Arial,sans-serif"><tspan x="899" dy="0">Reciclar /</tspan><tspan x="899" dy="16">reorganizar</tspan></text><line x1="840" y1="559" x2="884" y2="559" stroke="#2e78e8" stroke-width="4" marker-end="url(#arrowBlue)"/><text x="899" y="559" fill="#edf4ff" font-size="11" font-weight="500" text-anchor="start" font-family="Inter,Arial,sans-serif"><tspan x="899" dy="0">Defesa /</tspan><tspan x="899" dy="16">compactação</tspan></text><line x1="840" y1="612" x2="884" y2="612" stroke="#f7dc63" stroke-width="4" stroke-dasharray="7 7" marker-end="url(#arrowMovement)"/><text x="899" y="612" fill="#edf4ff" font-size="11" font-weight="500" text-anchor="start" font-family="Inter,Arial,sans-serif"><tspan x="899" dy="0">Movimentação</tspan><tspan x="899" dy="16">sem…</tspan></text><circle cx="863" cy="690" r="18" fill="none" stroke="#f4c542" stroke-width="4"/><circle cx="863" cy="690" r="7" fill="#f4c542"/><text x="899" y="686" fill="#f4c542" font-size="12" font-weight="900" text-anchor="start" font-family="Inter,Arial,sans-serif"><tspan x="899" dy="0">FOCO</tspan></text><text x="899" y="711" fill="#edf4ff" font-size="10" font-weight="500" text-anchor="start" font-family="Inter,Arial,sans-serif"><tspan x="899" dy="0">Segurança,</tspan><tspan x="899" dy="15">construção curta,</tspan><tspan x="899" dy="15">compactação e</tspan><tspan x="899" dy="15">finalização…</tspan></text></g><g><rect x="18" y="1140" width="988" height="252" rx="22" fill="url(#panelGradient)" stroke="#33495b" stroke-width="2"/><g><text x="54" y="1183" fill="#f4c542" font-size="21" font-weight="900" font-family="Inter,Arial,sans-serif">PRINCÍPIOS OFENSIVOS</text><circle cx="60" cy="1212" r="4" fill="#f4c542"/><text x="74" y="1217" fill="#edf4ff" font-size="15" font-weight="500" text-anchor="start" font-family="Inter,Arial,sans-serif"><tspan x="74" dy="0">Use Posse de bola para controlar o</tspan></text><circle cx="60" cy="1237" r="4" fill="#f4c542"/><text x="74" y="1242" fill="#edf4ff" font-size="15" font-weight="500" text-anchor="start" font-family="Inter,Arial,sans-serif"><tspan x="74" dy="0">ritmo.</tspan></text><circle cx="60" cy="1262" r="4" fill="#f4c542"/><text x="74" y="1267" fill="#edf4ff" font-size="15" font-weight="500" text-anchor="start" font-family="Inter,Arial,sans-serif"><tspan x="74" dy="0">Recuperar por dentro, acelerar no</tspan></text><circle cx="60" cy="1287" r="4" fill="#f4c542"/><text x="74" y="1292" fill="#edf4ff" font-size="15" font-weight="500" text-anchor="start" font-family="Inter,Arial,sans-serif"><tspan x="74" dy="0">meia…</tspan></text><circle cx="60" cy="1312" r="4" fill="#f4c542"/><text x="74" y="1317" fill="#edf4ff" font-size="15" font-weight="500" text-anchor="start" font-family="Inter,Arial,sans-serif"><tspan x="74" dy="0">Crie superioridade com</tspan></text><circle cx="60" cy="1337" r="4" fill="#f4c542"/><text x="74" y="1342" fill="#edf4ff" font-size="15" font-weight="500" text-anchor="start" font-family="Inter,Arial,sans-serif"><tspan x="74" dy="0">aproximações.</tspan></text><circle cx="60" cy="1362" r="4" fill="#f4c542"/><text x="74" y="1367" fill="#edf4ff" font-size="15" font-weight="500" text-anchor="start" font-family="Inter,Arial,sans-serif"><tspan x="74" dy="0">Acelere apenas quando a linha</tspan></text><circle cx="60" cy="1387" r="4" fill="#f4c542"/><text x="74" y="1392" fill="#edf4ff" font-size="15" font-weight="500" text-anchor="start" font-family="Inter,Arial,sans-serif"><tspan x="74" dy="0">abrir.</tspan></text><line x1="341" y1="1165" x2="341" y2="1413" stroke="#324656" stroke-width="1"/></g><g><text x="376" y="1183" fill="#3e8cff" font-size="21" font-weight="900" font-family="Inter,Arial,sans-serif">PRINCÍPIOS DEFENSIVOS</text><circle cx="382" cy="1212" r="4" fill="#3e8cff"/><text x="396" y="1217" fill="#edf4ff" font-size="15" font-weight="500" text-anchor="start" font-family="Inter,Arial,sans-serif"><tspan x="396" dy="0">Bloco compacto e linhas próximas.</tspan></text><circle cx="382" cy="1237" r="4" fill="#3e8cff"/><text x="396" y="1242" fill="#edf4ff" font-size="15" font-weight="500" text-anchor="start" font-family="Inter,Arial,sans-serif"><tspan x="396" dy="0">Proteja a entrada da área.</tspan></text><circle cx="382" cy="1262" r="4" fill="#3e8cff"/><text x="396" y="1267" fill="#edf4ff" font-size="15" font-weight="500" text-anchor="start" font-family="Inter,Arial,sans-serif"><tspan x="396" dy="0">Intercepte antes de perseguir.</tspan></text><circle cx="382" cy="1287" r="4" fill="#3e8cff"/><text x="396" y="1292" fill="#edf4ff" font-size="15" font-weight="500" text-anchor="start" font-family="Inter,Arial,sans-serif"><tspan x="396" dy="0">Cada jogador cobre o próprio</tspan></text><circle cx="382" cy="1312" r="4" fill="#3e8cff"/><text x="396" y="1317" fill="#edf4ff" font-size="15" font-weight="500" text-anchor="start" font-family="Inter,Arial,sans-serif"><tspan x="396" dy="0">espaço.</tspan></text><line x1="663" y1="1165" x2="663" y2="1413" stroke="#324656" stroke-width="1"/></g><g><text x="697" y="1183" fill="#f4c542" font-size="21" font-weight="900" font-family="Inter,Arial,sans-serif">POR QUE RENDE</text><circle cx="703" cy="1212" r="4" fill="#f4c542"/><text x="717" y="1217" fill="#edf4ff" font-size="15" font-weight="500" text-anchor="start" font-family="Inter,Arial,sans-serif"><tspan x="717" dy="0">Aproxima os setores.</tspan></text><circle cx="703" cy="1237" r="4" fill="#f4c542"/><text x="717" y="1242" fill="#edf4ff" font-size="15" font-weight="500" text-anchor="start" font-family="Inter,Arial,sans-serif"><tspan x="717" dy="0">Cria linhas de passe curtas.</tspan></text><circle cx="703" cy="1262" r="4" fill="#f4c542"/><text x="717" y="1267" fill="#edf4ff" font-size="15" font-weight="500" text-anchor="start" font-family="Inter,Arial,sans-serif"><tspan x="717" dy="0">Reduz riscos desnecessários.</tspan></text><circle cx="703" cy="1287" r="4" fill="#f4c542"/><text x="717" y="1292" fill="#edf4ff" font-size="15" font-weight="500" text-anchor="start" font-family="Inter,Arial,sans-serif"><tspan x="717" dy="0">Mantém cobertura após perder a</tspan></text><circle cx="703" cy="1312" r="4" fill="#f4c542"/><text x="717" y="1317" fill="#edf4ff" font-size="15" font-weight="500" text-anchor="start" font-family="Inter,Arial,sans-serif"><tspan x="717" dy="0">bola.</tspan></text><line x1="967" y1="1165" x2="967" y2="1413" stroke="#324656" stroke-width="1"/></g></g><g><rect x="35" y="1407" width="954" height="75" rx="18" fill="#160a0d" stroke="#ff5c63" stroke-width="2"/><text x="63" y="1438" fill="#ff5c63" font-size="18" font-weight="900" font-family="Inter,Arial,sans-serif">ERROS A EVITAR</text><text x="250" y="1435" fill="#f1c4c7" font-size="14" font-weight="650" font-family="Inter,Arial,sans-serif">× Forçar passes verticais sem opção.</text><text x="605" y="1435" fill="#f1c4c7" font-size="14" font-weight="650" font-family="Inter,Arial,sans-serif">× Sair com o zagueiro para perseguir.</text><text x="250" y="1462" fill="#f1c4c7" font-size="14" font-weight="650" font-family="Inter,Arial,sans-serif">× Perder a posse no centro.</text></g><text x="512" y="1515" text-anchor="middle" fill="#7f93a4" font-size="13" font-weight="600" font-family="Inter,Arial,sans-serif">GERADO LOCALMENTE PELO BUILDMASTER • SEM API PAGA • SVG/PNG EDITÁVEL</text></svg>